<svg width="175" height="100" version="1.1" viewBox="0 0 46.3 26.5" xmlns="http://www.w3.org/2000/svg">
 <g transform="translate(0 -271)">
  <g transform="matrix(.486 0 0 .486 -40 163)">
   <path d="m157 275c-3.61-0.915-5.74-3.61-5.74-7.27-8e-3 -4.47 2.56-6.68 8.95-7.7 4.96-0.789 7.87-1.38 8.88-1.8l1.02-0.425-0.173-1.47c-0.465-3.96-2.1-5.38-6.43-5.61-4.07-0.214-6.54 0.771-7.53 3-0.511 1.16-0.535 1.17-1.82 1.17h-1.3l0.362-1.2c1.03-3.42 4.24-5.15 9.55-5.15 4.88 0 7.72 1.42 9.14 4.57 0.606 1.34 0.628 1.64 0.758 10.3 0.126 8.47 0.161 8.97 0.647 9.33 0.282 0.206 0.729 0.375 0.992 0.375 0.371 0 0.479 0.209 0.479 0.926v0.926h-1.44c-1.14 0-1.59-0.133-2.18-0.639-0.688-0.592-0.749-0.804-0.836-2.91-0.0513-1.25-0.17-2.27-0.265-2.26-0.0942 4e-3 -0.469 0.496-0.833 1.09-0.891 1.46-3.51 3.55-5.29 4.22-1.66 0.623-5.4 0.891-6.95 0.498zm7.35-2.76c1.78-0.873 3.8-2.66 4.87-4.33 0.809-1.26 0.822-1.33 0.822-4.63 0-1.84-0.0893-3.35-0.198-3.35-0.109 2e-3 -0.794 0.184-1.52 0.405-0.728 0.221-3.29 0.743-5.69 1.16-2.4 0.417-4.87 0.961-5.49 1.21-3.52 1.42-4.33 6.06-1.53 8.76 1.39 1.34 2.57 1.7 5.24 1.57 1.55-0.0736 2.42-0.271 3.49-0.795zm-67.1-10.3v-13.1h2.65l0.0296 6.75 0.448-1.1c1.53-3.76 4.72-5.91 8.79-5.91h1.84v2.38l-1.26 4e-3c-4.15 0.0137-7.37 1.99-9.04 5.54l-0.688 1.47-0.159 17.1h-2.62zm18.3 0v-13.1h2.91v26.2h-2.91zm9 0v-13.1h2.65v3.04c0 1.67 0.0895 3.04 0.199 3.04s0.482-0.534 0.829-1.19c0.805-1.52 2.74-3.33 4.56-4.26 1.17-0.6 1.86-0.753 3.85-0.847 5.57-0.263 8.84 2.38 9.6 7.75 0.144 1.02 0.265 5.63 0.267 10.3l5e-3 8.4h-2.91v-9.08c0-7.58-0.0704-9.32-0.426-10.5-0.558-1.88-1.19-2.73-2.69-3.61-1.04-0.609-1.6-0.735-3.7-0.827-2.34-0.102-2.56-0.0654-4.17 0.727-1.96 0.964-3.49 2.56-4.57 4.75l-0.73 1.49-0.153 17.1h-2.63zm-39.2-14v-26.6h6.09v53.2h-6.09zm30.2-7.28v-1.59h2.91v3.18h-2.91z" fill="#333" stroke-width=".265"/>
  </g>
 </g>
</svg>
